<svg id="visual" viewBox="0 0 900 600" width="900" height="600" xmlns="http://www.w3.org/2000/svg" xmlns:xlink="http://www.w3.org/1999/xlink" version="1.1"><rect x="0" y="0" width="900" height="600" fill="#FFFFFF"></rect><path d="M0 340L50 350.2C100 360.3 200 380.7 300 345C400 309.3 500 217.7 600 183.5C700 149.3 800 172.7 850 184.3L900 196L900 0L850 0C800 0 700 0 600 0C500 0 400 0 300 0C200 0 100 0 50 0L0 0Z" fill="#ffffff"></path><path d="M0 44L50 85.3C100 126.7 200 209.3 300 255C400 300.7 500 309.3 600 279.2C700 249 800 180 850 145.5L900 111L900 0L850 0C800 0 700 0 600 0C500 0 400 0 300 0C200 0 100 0 50 0L0 0Z" fill="#dbe9fe"></path><path d="M0 45L50 57.5C100 70 200 95 300 136.7C400 178.3 500 236.7 600 258.2C700 279.7 800 264.3 850 256.7L900 249L900 0L850 0C800 0 700 0 600 0C500 0 400 0 300 0C200 0 100 0 50 0L0 0Z" fill="#b4d4fc"></path><path d="M0 13L50 49.3C100 85.7 200 158.3 300 167.7C400 177 500 123 600 104.5C700 86 800 103 850 111.5L900 120L900 0L850 0C800 0 700 0 600 0C500 0 400 0 300 0C200 0 100 0 50 0L0 0Z" fill="#89c0fa"></path><path d="M0 118L50 121C100 124 200 130 300 112.7C400 95.3 500 54.7 600 42.7C700 30.7 800 47.3 850 55.7L900 64L900 0L850 0C800 0 700 0 600 0C500 0 400 0 300 0C200 0 100 0 50 0L0 0Z" fill="#4facf7"></path></svg>